# xmcd
#
# Track frame offsets:
# 150
# 14058
# 30859
# 48110
# 64911
# 81919
# 98870
# 114621
# 131872
# 150023
# 169974
#
# Disc length: 2438 seconds
#
# Revision: 1
# Processed by: cddbd v1.5.2PL0 Copyright (c) Steve Scherf et al.
# Submitted via: CedeCatalogueitor 2.6.0.6 http://personales.ya.com/cdcatalogueitor
#
DISCID=8609840b
DTITLE=Beth Loring - Everything You Feel Is Real
DYEAR=1900
DGENRE=
TTITLE0=Heaven Collapse
TTITLE1=The Best Son
TTITLE2=Whatever They Do
TTITLE3=The Dancer
TTITLE4=Everything You Feels Is Real
TTITLE5=Fast R Cruel
TTITLE6=Found
TTITLE7=Could You Fell This?
TTITLE8=Sound Is Love
TTITLE9=Take Me On
TTITLE10=What Devil Happened If I Was...
EXTD=
EXTT0=
EXTT1=
EXTT2=
EXTT3=
EXTT4=
EXTT5=
EXTT6=
EXTT7=
EXTT8=
EXTT9=
EXTT10=
PLAYORDER=
